<?xml version="1.0" encoding="utf-8"?>
<!-- Generator: Adobe Illustrator 27.6.1, SVG Export Plug-In . SVG Version: 6.00 Build 0)  -->
<svg version="1.1" id="Capa_1" xmlns="http://www.w3.org/2000/svg" xmlns:xlink="http://www.w3.org/1999/xlink" x="0px" y="0px"
	 viewBox="0 0 300 300" style="enable-background:new 0 0 300 300;" xml:space="preserve">
<path d="M276.65,140.55c0-14.3-6.12-27.7-16.78-36.8L182.26,37.5c-17.12-14.61-41.94-14.61-59.03,0l-77.61,66.25
	c-10.66,9.1-16.78,22.51-16.78,36.8V249.8c0,13.02,10.29,23.63,22.91,23.63h29.29c12.62,0,22.91-10.61,22.91-23.63v-51.06
	c0-18.64,14.68-33.78,32.71-33.78h32.18c18.06,0,32.74,15.15,32.74,33.78v51.06c0,13.02,10.29,23.63,22.91,23.63h29.29
	c12.62,0,22.91-10.61,22.91-23.63L276.65,140.55z M253.75,288.93h-29.29c-20.91,0-37.93-17.55-37.93-39.13v-51.06
	c0-10.07-7.96-18.29-17.69-18.29h-32.18c-9.76,0-17.69,8.21-17.69,18.29v51.06c-0.04,21.58-17.05,39.13-37.96,39.13H51.73
	c-20.91,0-37.92-17.55-37.92-39.13V140.55c0-18.91,8.11-36.69,22.23-48.74l77.61-66.25c22.64-19.33,55.54-19.33,78.18,0l77.61,66.25
	c14.12,12.05,22.22,29.79,22.22,48.74V249.8C291.66,271.38,274.65,288.93,253.75,288.93L253.75,288.93z"/>
<path d="M1112.57,71.74c0-25.42,21.36-46.11,47.61-46.11h152.63c26.21,0,47.57,20.69,47.57,46.11v118.74
	c0,25.39-21.36,46.08-47.61,46.08h-53.47c-9.2,0-18.21,2.44-26.06,7.09l-49.26,29.17c-3.23,1.89-7.1,2-10.4,0.25
	c-3.31-1.75-5.33-4.95-5.41-8.62l-0.19-8.11c-0.23-10.04-7.58-18.77-17.5-20.77c-21.96-4.36-37.92-23.35-37.92-45.13L1112.57,71.74z
	 M1147.45,249.87c3.12,0.62,5.45,3.49,5.52,6.84l0.19,8.11c0.23,8.91,5.14,16.77,13.22,21.06c3.83,2.04,8.04,3.05,12.2,3.05
	c4.58,0,9.12-1.24,13.26-3.64l49.26-29.17c5.48-3.24,11.79-4.98,18.21-4.98h53.47c34.55-0.04,62.63-27.24,62.63-60.7V71.73
	c0-33.46-28.09-60.66-62.63-60.66h-152.6c-34.54,0-62.63,27.2-62.63,60.66v118.74C1097.55,219.1,1118.54,244.05,1147.45,249.87
	L1147.45,249.87z"/>
<path d="M1181.06,105.63h110.88c4.13,0,7.51-3.27,7.51-7.27c0-4-3.38-7.27-7.51-7.27h-110.88c-4.13,0-7.51,3.27-7.51,7.27
	C1173.55,102.36,1176.89,105.63,1181.06,105.63z"/>
<path d="M1181.06,171.09h110.88c4.13,0,7.51-3.27,7.51-7.27s-3.38-7.27-7.51-7.27h-110.88c-4.13,0-7.51,3.27-7.51,7.27
	S1176.89,171.09,1181.06,171.09z"/>
<g>
	<path d="M3383.91,45.07v13.1c0,3.83-3.38,6.97-7.51,6.97s-7.51-3.13-7.51-6.97l0-13.1h-8.71c-26.25,0-47.61,19.82-47.61,44.17
		v141.61c0,24.32,21.36,44.14,47.61,44.14h152.6c26.25,0,47.61-19.82,47.61-44.17V89.24c0-24.35-21.36-44.17-47.61-44.17h-8.71v13.1
		c0,3.83-3.38,6.97-7.51,6.97c-4.13,0-7.51-3.13-7.51-6.97l0-13.1L3383.91,45.07z M3496.56,11.07c4.13,0,7.51,3.13,7.51,6.97v13.1
		h8.71c34.54,0,62.63,26.06,62.63,58.11v141.61c0,32.02-28.09,58.07-62.63,58.07h-152.63c-34.51,0-62.59-26.06-62.59-58.11V89.24
		c0-32.05,28.09-58.11,62.63-58.11h8.71v-13.1c0-3.83,3.38-6.97,7.51-6.97s7.51,3.13,7.51,6.97l0,13.1h105.14v-13.1
		C3489.04,14.17,3492.43,11.07,3496.56,11.07L3496.56,11.07z"/>
	<path d="M3462.47,117.25v15.92c0,7.14,6.27,12.92,13.93,12.92h17.16c7.7,0.03,13.97-5.79,13.97-12.89v-15.92
		c0-7.14-6.27-12.92-13.93-12.92h-17.16C3468.74,104.33,3462.47,110.15,3462.47,117.25z M3522.54,117.25v15.92
		c0,14.81-12.99,26.86-28.95,26.86h-17.16c-15.96,0-28.95-12.05-28.95-26.86v-15.92c0-14.81,12.99-26.86,28.95-26.86h17.16
		C3509.55,90.39,3522.54,102.45,3522.54,117.25z"/>
	<path d="M3413.95,117.22c0-7.14-6.27-12.92-13.93-12.92h-17.16c-7.7,0-13.93,5.82-13.93,12.92v15.92c0,7.14,6.27,12.92,13.93,12.92
		h17.16c7.66,0.03,13.93-5.79,13.93-12.89V117.22z M3400.02,160.03h-17.16c-15.96,0-28.95-12.05-28.95-26.86v-15.92
		c0-14.81,12.99-26.86,28.95-26.86h17.16c15.96-0.03,28.95,12.02,28.95,26.82v15.92C3428.97,147.98,3415.98,160.03,3400.02,160.03
		L3400.02,160.03z"/>
	<path d="M3462.48,216.82c0,7.14,6.27,12.92,13.93,12.92h17.16c7.7,0,13.97-5.82,13.97-12.92V200.9c0-7.14-6.27-12.92-13.93-12.92
		h-17.16c-7.7,0-13.93,5.82-13.93,12.92l0,15.92H3462.48z M3476.41,174h17.16c15.99,0,28.99,12.06,28.99,26.86v15.92
		c0,14.81-12.99,26.86-28.95,26.86h-17.16c-15.96,0-28.95-12.05-28.95-26.86v-15.92C3447.46,186.06,3460.45,174,3476.41,174
		L3476.41,174z"/>
	<path d="M3413.95,200.83c0-7.14-6.27-12.92-13.93-12.92h-17.16c-7.7,0-13.93,5.82-13.93,12.92v15.92c0,7.14,6.27,12.92,13.93,12.92
		h17.16c7.66,0.03,13.93-5.78,13.93-12.89V200.83z M3400.02,243.64h-17.16c-15.96,0-28.95-12.05-28.95-26.86v-15.92
		c0-14.81,12.99-26.86,28.95-26.86h17.16c15.96-0.03,28.95,12.02,28.95,26.82v15.92C3428.97,231.59,3415.98,243.64,3400.02,243.64
		L3400.02,243.64z"/>
</g>
<path d="M2555.18,236.22c0,13.13-10.48,23.81-23.37,23.81h-311.58c-12.88,0-23.37-10.68-23.37-23.81V61.6
	c0-13.13,10.48-23.81,23.37-23.81h311.58c12.88,0,23.37,10.68,23.37,23.81V236.22z M2531.82,21.91h-311.58
	c-21.48,0-38.95,17.8-38.95,39.69v174.63c0,21.89,17.47,39.69,38.95,39.69h311.58c21.48,0,38.95-17.8,38.95-39.69V61.6
	C2570.76,39.71,2553.29,21.91,2531.82,21.91z"/>
<path d="M2335.76,156.95c-5.48,4.06-7.76,11.18-5.67,17.75l10.18,31.92l-26.65-19.72c-2.74-2.03-5.95-3.05-9.16-3.05
	c-3.21,0-6.42,1.02-9.16,3.04l-26.64,19.72l10.18-31.92c2.1-6.56-0.18-13.7-5.66-17.75l-26.65-19.72h32.94
	c6.75,0,12.71-4.4,14.81-10.97l10.13-32.02c0,0,0.01,0.02,0.04,0.1l10.18,31.92c2.1,6.56,8.05,10.97,14.81,10.97h32.94
	L2335.76,156.95z M2362.4,121.36h-32.94l-10.18-31.92c-2.12-6.67-7.94-10.97-14.81-10.97c-6.88,0-12.69,4.3-14.81,10.97
	l-10.18,31.92h-32.94c-6.88,0-12.69,4.3-14.81,10.97c-2.12,6.66,0.1,13.63,5.66,17.75l26.65,19.72l-10.18,31.92
	c-2.12,6.66,0.09,13.63,5.65,17.75c2.78,2.06,5.97,3.1,9.17,3.1c3.19,0,6.37-1.03,9.16-3.09l26.64-19.72l26.65,19.72
	c5.57,4.12,12.76,4.12,18.31,0c5.57-4.12,7.79-11.08,5.67-17.75l-10.18-31.92l26.65-19.72c5.56-4.12,7.78-11.09,5.66-17.75
	C2375.09,125.66,2369.28,121.36,2362.4,121.36L2362.4,121.36z"/>
<path d="M2411.47,205.83c-0.39-0.32-0.86-0.56-1.32-0.72c-0.48-0.24-0.94-0.4-1.48-0.47c-2.49-0.56-5.22,0.32-7,2.14
	c-1.42,1.51-2.26,3.57-2.26,5.63c0,1.03,0.23,2.06,0.62,3.02c0.39,0.95,0.94,1.82,1.63,2.62c1.47,1.43,3.51,2.3,5.53,2.3
	c0.47,0,1.01-0.08,1.47-0.16c0.55-0.08,1.01-0.24,1.48-0.47c0.47-0.16,0.94-0.4,1.32-0.72c0.47-0.24,0.86-0.63,1.17-0.95
	c0.78-0.79,1.32-1.59,1.71-2.62c0.4-0.95,0.63-1.98,0.63-3.02c0-2.06-0.86-4.13-2.34-5.63
	C2412.32,206.46,2411.93,206.15,2411.47,205.83L2411.47,205.83z"/>
<ellipse cx="2436.4" cy="212.41" rx="7.79" ry="7.94"/>
<ellipse cx="2494.82" cy="212.41" rx="7.79" ry="7.94"/>
<ellipse cx="2465.61" cy="212.41" rx="7.79" ry="7.94"/>
<path d="M2518.5,206.77c-1.41,1.51-2.26,3.57-2.26,5.63c0,2.06,0.85,4.13,2.26,5.63c0.78,0.72,1.56,1.27,2.57,1.67
	c0.94,0.4,1.95,0.64,2.96,0.64c2.02,0,4.05-0.87,5.53-2.3c1.4-1.51,2.26-3.57,2.26-5.63s-0.86-4.13-2.26-5.63
	C2526.68,203.83,2521.46,203.83,2518.5,206.77L2518.5,206.77z"/>
</svg>
